PathFileType	4	(X/Y/Z)	/Users/visionmauri/Downloads/Videos/OAW01-top_Sports2D/OAW01-top_Sports2D_m_person00.trc
DataRate	CameraRate	NumFrames	NumMarkers	Units	OrigDataRate	OrigDataStartFrame	OrigNumFrames
26.0	26.0	7	22	m	26.0	1271	2035
Frame#	Time	Hip			RHip			RKnee			RAnkle			RBigToe			RSmallToe			RHeel			LHip			LKnee			LAnkle			LBigToe			LSmallToe			LHeel			Neck			Head			Nose			RShoulder			RElbow			RWrist			LShoulder			LElbow			LWrist			
		X1	Y1	Z1	X2	Y2	Z2	X3	Y3	Z3	X4	Y4	Z4	X5	Y5	Z5	X6	Y6	Z6	X7	Y7	Z7	X8	Y8	Z8	X9	Y9	Z9	X10	Y10	Z10	X11	Y11	Z11	X12	Y12	Z12	X13	Y13	Z13	X14	Y14	Z14	X15	Y15	Z15	X16	Y16	Z16	X17	Y17	Z17	X18	Y18	Z18	X19	Y19	Z19	X20	Y20	Z20	X21	Y21	Z21	X22	Y22	Z22
1271	48.90864911882612	1.3240075197049221	-0.949883245665996	0.0301	1.4745659155137119	-0.9749771413238711	0.0301	1.2535348672098772	-1.353285525342165	0.129	1.2172500524924847	-1.8302713076220418	0.023	0.9475583843190368	-1.7974011900000322	0.2179	1.0450234170429589	-1.8322203191567459	0.1804	1.2076632396925364	-1.937824316108438	-0.0119	1.1693421303530616	-0.9811232896771775	0.0301	1.0894035326133904	-1.5684325668758796	0.129	1.05908076788335	-2.221544404678469	0.023	0.9552328167889731	-2.0983791678411206	0.2179	0.8868151438011026	-2.1988452246136645	0.1804	1.0773219825089035	-2.340878904113529	-0.0119	1.332387347092568	0.05459846669280104	0.0008	1.2851719972872018	0.4241084553837037	0.0655	1.215876703215592	0.18138386996032654	0.1076	1.619905695776316	-0.10665775663400648	-0.01275	1.6578447534002583	-0.5666772427984862	0.0702	1.5764233282176594	-0.8083890203310966	0.1076	1.052573982781646	-0.139616624317232	-0.01275	0.8563540093192874	-0.5966838266707235	0.0702	0.7237164594163713	-0.9568517290330031	0.1076
1272	48.9471295665986	1.3155972305725427	-0.9636255826416733	0.0301	1.4683546069429818	-1.0077206256282598	0.0301	1.2804041590092556	-1.3894803587635427	0.129	1.2243462866417723	-1.8426956604688127	0.023	0.9959643015244625	-1.7828077390906172	0.2179	1.1792929927337477	-1.84758657271961	0.1804	1.202703938589141	-1.9449408922409719	-0.0119	1.1514073431032283	-1.0071361946627082	0.0301	1.0796197063067647	-1.590928944454501	0.129	1.0560622126489894	-2.223768472526127	0.023	0.9800885196793899	-2.1309287628000293	0.2179	0.8947615890914885	-2.206853328183603	0.1804	1.0669531108385155	-2.352217753934369	-0.0119	1.3260501494797736	0.053444099430263015	0.0008	1.2924828242315094	0.41007954279357034	0.0655	1.2131397535830166	0.17544453323137815	0.1076	1.6249815458803916	-0.11786669456371542	-0.01275	1.683194354336608	-0.5643009438387071	0.0702	1.6354116653474144	-0.846614758234534	0.1076	1.0317715940340313	-0.13659906482773754	-0.01275	0.8287673040373371	-0.5779837156633101	0.0702	0.6846352115436937	-0.9217364411985994	0.1076
1273	48.98561001437108	1.3127116970977275	-0.9700138336381642	0.0301	1.4697533505794111	-1.0282755937560595	0.0301	1.2950722426901595	-1.416322057117023	0.129	1.2260439298587884	-1.8641474660045472	0.023	1.061654785649072	-1.7857474276713006	0.2179	1.259457427944332	-1.8499973345239513	0.1804	1.2019855934113777	-1.9593114920986956	-0.0119	1.1426446667750498	-1.0254696986748424	0.0301	1.07626783689856	-1.6042947641558154	0.129	1.0574652846031405	-2.2260100732588115	0.023	0.9890842679256132	-2.1457587042469735	0.2179	0.9066377233082217	-2.2182014034192625	0.1804	1.0695427308587944	-2.3582846383581137	-0.0119	1.3223193351715496	0.051424569715814765	0.0008	1.2987839984182574	0.39506835648593847	0.0655	1.2105715758166056	0.1661666562986098	0.1076	1.6281367815587011	-0.12909347840243354	-0.01275	1.7056487451598652	-0.5525908756651102	0.0702	1.684195592074102	-0.867659323748826	0.1076	1.0212474543642256	-0.1342857810252987	-0.01275	0.8121942729446243	-0.5622086065205796	0.0702	0.6498876687330755	-0.8841150641985255	0.1076
1274	49.02409046214357	1.3143015591961944	-0.9767334435561108	0.0301	1.476413828274929	-1.037182001161863	0.0301	1.3000651653633504	-1.4311978824172609	0.129	1.230432854869909	-1.8884831932610437	0.023	1.1193515959125395	-1.8034635940451698	0.2179	1.2726382724577086	-1.8473140092652212	0.1804	1.2096094072454673	-1.985204629583981	-0.0119	1.1411065702984722	-1.0337638173949328	0.0301	1.0754516442495676	-1.6100085423772135	0.129	1.0567353923163714	-2.2310609583506773	0.023	0.9842510015601323	-2.144962507672372	0.2179	0.9124479566981796	-2.2199140240337893	0.1804	1.0734517920151538	-2.359160925228235	-0.0119	1.3209091691715857	0.05015492819050819	0.0008	1.3037615706662895	0.3865889416959466	0.0655	1.2107845479598702	0.15872628701902278	0.1076	1.6306161570910773	-0.14171327742526613	-0.01275	1.7201918911900034	-0.5549565714372051	0.0702	1.7195489213402304	-0.8876293895626871	0.1076	1.0184244018391024	-0.13469399860631928	-0.01275	0.8052514397787641	-0.5496307337161931	0.0702	0.6245824752878688	-0.849988629134955	0.1076
1275	49.06257090991605	1.3169269489547775	-0.9876902613587961	0.0301	1.4788876109471056	-1.0429010134540058	0.0301	1.3052217948165443	-1.444333026078474	0.129	1.2472656517602698	-1.9163382773529547	0.023	1.170442398030406	-1.8293934554263667	0.2179	1.288028254281748	-1.8672135398084162	0.1804	1.2271960375601059	-2.020797683249913	-0.0119	1.1388955869074369	-1.0379379892712264	0.0301	1.074629395577971	-1.616515361159498	0.129	1.0543672113833678	-2.23422068467509	0.023	0.9787596780391821	-2.142477845883298	0.2179	0.9107139618021513	-2.2069552197003928	0.1804	1.071152196417805	-2.358874831891169	-0.0119	1.3204291592766955	0.04802104631782303	0.0008	1.308839676261027	0.38561933238930496	0.0655	1.2159385473298128	0.15714116736101905	0.1076	1.6347394588882693	-0.15561411337143788	-0.01275	1.7262431390248367	-0.5774282220418554	0.0702	1.7398917991855645	-0.9103435349358462	0.1076	1.0185964455809267	-0.13830589892949913	-0.01275	0.8037438760495241	-0.5448674550137197	0.0702	0.6122106409392509	-0.825703497980198	0.1076
1276	49.10105135768853	1.3191218746611892	-0.9954760686551087	0.0301	1.4796582776015788	-1.0453927607469224	0.0301	1.317279417867485	-1.4639143224368596	0.129	1.274109835710517	-1.959392559745514	0.023	1.209378493525109	-1.8792232568090173	0.2179	1.3203967940970491	-1.923050770324413	0.1804	1.2493969231311783	-2.0708762068075943	-0.0119	1.137911893253036	-1.0395159983266329	0.0301	1.0749468929060193	-1.620673382048152	0.129	1.0537228330738482	-2.2306789704101075	0.023	0.9797964742746841	-2.1457102757025646	0.2179	0.9147869386629502	-2.1986099016553475	0.1804	1.0677790893953416	-2.3543757831809753	-0.0119	1.3249968833005445	0.04490543404739799	0.0008	1.3167943736883072	0.39148545286546027	0.0655	1.2296144406095277	0.1601590985856155	0.1076	1.6422235202863287	-0.16480554980440104	-0.01275	1.7290971798697252	-0.6045142012131138	0.0702	1.7487988941484764	-0.9300579721299863	0.1076	1.0218770347871131	-0.13943727114599966	-0.01275	0.8062664152097822	-0.5459992827926444	0.0702	0.6119630335382077	-0.8105830980329444	0.1076
1277	49.13953180546102	1.3201733475540474	-0.9955299328780259	0.0301	1.4847621123870982	-1.0462390448815746	0.0301	1.3334496395010826	-1.4950556796453836	0.129	1.3002061553840127	-2.0220788527138764	0.023	1.2310685671681008	-1.9566460778774784	0.2179	1.3483643584454341	-1.9982766843284847	0.1804	1.271122317845022	-2.138143819772064	-0.0119	1.1404952319508772	-1.0380343771710854	0.0301	1.0770615770517475	-1.6200643445274148	0.129	1.056587165338446	-2.224538144309035	0.023	0.9879340479682711	-2.149819239156467	0.2179	0.9295229549026465	-2.2029605246699955	0.1804	1.0726102398966637	-2.3459284358586503	-0.0119	1.3365821057965799	0.04253707895594893	0.0008	1.3283386735315026	0.40004220881647795	0.0655	1.250356130687225	0.1638505458754115	0.1076	1.652694263400401	-0.16722823750024496	-0.01275	1.7325999357713784	-0.6193225374931726	0.0702	1.7500100280958324	-0.9456583100213531	0.1076	1.0271349388489437	-0.13411562697057208	-0.01275	0.8139436545202339	-0.5455439459492473	0.0702	0.6252812798797303	-0.8004317430970658	0.1076
